RBDS04runT45_grf
version=1
nRows=27
nColumns=19
inDegrees=no
endheader
time	ground_force_r_vx	ground_force_r_vy	ground_force_r_vz	ground_force_r_px	ground_force_r_py	ground_force_r_pz	ground_force_r_mx	ground_force_r_my	ground_force_r_mz	ground_force_l_vx	ground_force_l_vy	ground_force_l_vz	ground_force_l_px	ground_force_l_py	ground_force_l_pz	ground_force_l_mx	ground_force_l_my	ground_force_l_mz
      7.49900000	      0.00000000	      0.00000000	      0.00000000	      0.00000000	      0.00000000	      0.00000000	      0.00000000	      0.00000000	      0.00000000	    -70.17678362	    289.89707515	     -9.67537270	      2.42812910	      0.00000000	      0.94937676	     -0.00000000	      2.28538939	     -0.00000000
      7.50000000	      0.00000000	      0.00000000	      0.00000000	      0.00000000	      0.00000000	      0.00000000	      0.00000000	      0.00000000	      0.00000000	    -76.01681769	    329.39778405	    -10.29936477	      2.42564036	      0.00000000	      0.95061235	     -0.00000000	      2.32488010	     -0.00000000
      7.50100000	      0.00000000	      0.00000000	      0.00000000	      0.00000000	      0.00000000	      0.00000000	      0.00000000	      0.00000000	      0.00000000	    -81.74045952	    368.28600927	    -10.91734200	      2.42314015	      0.00000000	      0.95181506	     -0.00000000	      2.36154663	     -0.00000000
      7.50200000	      0.00000000	      0.00000000	      0.00000000	      0.00000000	      0.00000000	      0.00000000	      0.00000000	      0.00000000	      0.00000000	    -87.46410134	    407.17423448	    -11.53531922	      2.42063993	      0.00000000	      0.95301777	     -0.00000000	      2.39821316	     -0.00000000
      7.50300000	      0.00000000	      0.00000000	      0.00000000	      0.00000000	      0.00000000	      0.00000000	      0.00000000	      0.00000000	      0.00000000	    -93.18774317	    446.06245970	    -12.15329645	      2.41813972	      0.00000000	      0.95422048	     -0.00000000	      2.43487969	     -0.00000000
      7.50400000	      0.00000000	      0.00000000	      0.00000000	      0.00000000	      0.00000000	      0.00000000	      0.00000000	      0.00000000	      0.00000000	    -98.77032248	    484.29988848	    -12.78750188	      2.41562420	      0.00000000	      0.95539138	     -0.00000000	      2.47040072	     -0.00000000
      7.50500000	      0.00000000	      0.00000000	      0.00000000	      0.00000000	      0.00000000	      0.00000000	      0.00000000	      0.00000000	      0.00000000	   -104.28237054	    522.21191905	    -13.42982141	      2.41310103	      0.00000000	      0.95654636	     -0.00000000	      2.50534900	     -0.00000000
      7.50600000	      0.00000000	      0.00000000	      0.00000000	      0.00000000	      0.00000000	      0.00000000	      0.00000000	      0.00000000	      0.00000000	   -109.79441860	    560.12394961	    -14.07214094	      2.41057786	      0.00000000	      0.95770135	     -0.00000000	      2.54029728	     -0.00000000
      7.50700000	      0.00000000	      0.00000000	      0.00000000	      0.00000000	      0.00000000	      0.00000000	      0.00000000	      0.00000000	      0.00000000	   -115.20438768	    597.59883593	    -14.72872116	      2.40804306	      0.00000000	      0.95883586	     -0.00000000	      2.57523400	     -0.00000000
      7.50800000	      0.00000000	      0.00000000	      0.00000000	      0.00000000	      0.00000000	      0.00000000	      0.00000000	      0.00000000	      0.00000000	   -120.41019882	    634.19943375	    -15.41382276	      2.40548500	      0.00000000	      0.95992941	     -0.00000000	      2.61014762	     -0.00000000
      7.50900000	      0.00000000	      0.00000000	      0.00000000	      0.00000000	      0.00000000	      0.00000000	      0.00000000	      0.00000000	      0.00000000	   -125.61600996	    670.80003156	    -16.09892436	      2.40292695	      0.00000000	      0.96102296	     -0.00000000	      2.64506123	     -0.00000000
      7.51000000	      0.00000000	      0.00000000	      0.00000000	      0.00000000	      0.00000000	      0.00000000	      0.00000000	      0.00000000	      0.00000000	   -130.82182110	    707.40062938	    -16.78402596	      2.40036889	      0.00000000	      0.96211652	     -0.00000000	      2.67997484	     -0.00000000
      7.51100000	      0.00000000	      0.00000000	      0.00000000	      0.00000000	      0.00000000	      0.00000000	      0.00000000	      0.00000000	      0.00000000	   -135.62905890	    742.38958780	    -17.51679020	      2.39776421	      0.00000000	      0.96313642	     -0.00000000	      2.71719929	     -0.00000000
      7.51200000	      0.00000000	      0.00000000	      0.00000000	      0.00000000	      0.00000000	      0.00000000	      0.00000000	      0.00000000	      0.00000000	   -140.43629669	    777.37854622	    -18.24955444	      2.39515952	      0.00000000	      0.96415633	     -0.00000000	      2.75442373	     -0.00000000
      7.51300000	      0.00000000	      0.00000000	      0.00000000	      0.00000000	      0.00000000	      0.00000000	      0.00000000	      0.00000000	      0.00000000	   -145.24353449	    812.36750464	    -18.98231868	      2.39255484	      0.00000000	      0.96517624	     -0.00000000	      2.79164818	     -0.00000000
      7.51400000	      0.00000000	      0.00000000	      0.00000000	      0.00000000	      0.00000000	      0.00000000	      0.00000000	      0.00000000	      0.00000000	   -149.72605944	    846.10846876	    -19.74090505	      2.38991174	      0.00000000	      0.96614010	     -0.00000000	      2.83241045	     -0.00000000
      7.51500000	      0.00000000	      0.00000000	      0.00000000	      0.00000000	      0.00000000	      0.00000000	      0.00000000	      0.00000000	      0.00000000	   -154.04622798	    879.22543572	    -20.51240249	      2.38724942	      0.00000000	      0.96707594	     -0.00000000	      2.87494164	     -0.00000000
      7.51600000	      0.00000000	      0.00000000	      0.00000000	      0.00000000	      0.00000000	      0.00000000	      0.00000000	      0.00000000	      0.00000000	   -158.36639652	    912.34240269	    -21.28389993	      2.38458711	      0.00000000	      0.96801178	     -0.00000000	      2.91747283	      0.00000000
      7.51700000	      0.00000000	      0.00000000	      0.00000000	      0.00000000	      0.00000000	      0.00000000	      0.00000000	      0.00000000	      0.00000000	   -162.49645604	    944.76285813	    -22.06112716	      2.38190231	      0.00000000	      0.96891680	     -0.00000000	      2.96294252	      0.00000000
      7.51800000	      0.00000000	      0.00000000	      0.00000000	      0.00000000	      0.00000000	      0.00000000	      0.00000000	      0.00000000	      0.00000000	   -166.24629752	    975.79029052	    -22.84981399	      2.37917255	      0.00000000	      0.96976019	     -0.00000000	      3.01428922	      0.00000000
      7.51900000	      0.00000000	      0.00000000	      0.00000000	      0.00000000	      0.00000000	      0.00000000	      0.00000000	      0.00000000	      0.00000000	   -169.99613901	   1006.81772291	    -23.63850082	      2.37644279	      0.00000000	      0.97060359	     -0.00000000	      3.06563592	      0.00000000
      7.52000000	      0.00000000	      0.00000000	      0.00000000	      0.00000000	      0.00000000	      0.00000000	      0.00000000	      0.00000000	      0.00000000	   -173.74598049	   1037.84515530	    -24.42718764	      2.37371302	      0.00000000	      0.97144698	     -0.00000000	      3.11698262	      0.00000000
      7.52100000	      0.00000000	      0.00000000	      0.00000000	      0.00000000	      0.00000000	      0.00000000	      0.00000000	      0.00000000	      0.00000000	   -176.84885632	   1066.60939360	    -25.20141330	      2.37090750	      0.00000000	      0.97219177	     -0.00000000	      3.18089859	      0.00000000
      7.52200000	      0.00000000	      0.00000000	      0.00000000	      0.00000000	      0.00000000	      0.00000000	      0.00000000	      0.00000000	      0.00000000	   -179.95173216	   1095.37363190	    -25.97563896	      2.36810198	      0.00000000	      0.97293655	     -0.00000000	      3.24481456	      0.00000000
      7.52300000	      0.00000000	      0.00000000	      0.00000000	      0.00000000	      0.00000000	      0.00000000	      0.00000000	      0.00000000	      0.00000000	   -183.05460799	   1124.13787020	    -26.74986463	      2.36529645	      0.00000000	      0.97368134	     -0.00000000	      3.30873054	      0.00000000
      7.52400000	      0.00000000	      0.00000000	      0.00000000	      0.00000000	      0.00000000	      0.00000000	      0.00000000	      0.00000000	      0.00000000	   -185.68046360	   1151.30633026	    -27.48894516	      2.36243602	      0.00000000	      0.97435782	     -0.00000000	      3.38344867	      0.00000000
      7.52500000	      0.00000000	      0.00000000	      0.00000000	      0.00000000	      0.00000000	      0.00000000	      0.00000000	      0.00000000	      0.00000000	   -188.06780911	   1177.67690121	    -28.21045314	      2.35954813	      0.00000000	      0.97500015	     -0.00000000	      3.46356789	      0.00000000
